<?xml version="1.0" encoding="utf-8"?>
<!-- Generated by IcoMoon.io -->
<!DOCTYPE svg PUBLIC "-//W3C//DTD SVG 1.1//EN" "http://www.w3.org/Graphics/SVG/1.1/DTD/svg11.dtd">
<svg version="1.1" xmlns="http://www.w3.org/2000/svg" xmlns:xlink="http://www.w3.org/1999/xlink" width="512" height="512" viewBox="0 0 512 512">
<g>
</g>
	<path d="M442.644 181.218c0 105.196-81.971 190.802-182.754 190.802-100.751 0-182.702-85.596-182.702-190.802h-20.838c0 116.695 91.31 211.641 203.541 211.641 112.251 0 203.591-94.935 203.591-211.641h-20.839z" fill="#000000" />
	<path d="M343.409 479.642c0-9.636-37.397-17.438-83.517-17.438-46.111 0-83.517 7.803-83.517 17.438 0 9.605 37.406 17.398 83.517 17.398 46.121 0 83.517-7.803 83.517-17.398z" fill="#000000" />
	<path d="M249.692 382.884h20.429v100.956h-20.429v-100.956z" fill="#000000" />
	<path d="M393.913 177.602c0 74.496-59.955 135.117-133.653 135.117s-133.653-60.621-133.653-135.117c0-74.455 59.955-135.055 133.653-135.055s133.653 60.59 133.653 135.055zM260.26 22.057c-84.992 0-154.132 69.775-154.132 155.536 0 85.801 69.141 155.597 154.132 155.597s154.132-69.796 154.132-155.597c0-85.75-69.141-155.536-154.132-155.536z" fill="#000000" />
	<path d="M260.352 14.96c-90.286 0-163.461 72.898-163.461 162.837 0 89.917 73.175 162.837 163.461 162.837 90.245 0 163.43-72.919 163.43-162.837 0-89.938-73.185-162.837-163.43-162.837zM260.352 320.276c-78.704 0-142.459-63.795-142.459-142.48s63.754-142.459 142.459-142.459c78.684 0 142.459 63.785 142.459 142.459s-63.785 142.48-142.459 142.48z" fill="#000000" />
	<path d="M43.008 202.537h72.438v22.856h-72.438v-22.856z" fill="#000000" />
	<path d="M396.565 202.537h72.428v22.856h-72.428v-22.856z" fill="#000000" />
</svg>
